<svg xmlns="http://www.w3.org/2000/svg" width="1123" height="794" stroke="none" stroke-linecap="round" stroke-linejoin="round" fill="#fff" fill-rule="evenodd"><path d="M899.5 97.625h-655l54.5825 567.814L572 739.5l272.9175-74.061L899.5 97.625" fill="#1572b6"/><path d="M809.3195 467.939l4.7456-49.375 7.1198-74.064 7.1199-74.061 7.1179-74.064L840.1701 147H572v543.125l165.6997-44.9668 56.0441-15.2091 7.3098-76.0469 7.3119-76.0462z" fill="#33a9dc"/><path d="M516.6863 601.0524l-28.0228-7.6045-89.671-24.3367-7.311-76.0469-2.4156-25.1268h87.3325l4.7541 49.4635 28.024 7.6059 62.6246 16.9946v74.061zM370.2795 270.439h87.3314 27.2936H572v-74.064h-94.2152-27.2925-87.3325z" fill="#ebebeb"/><path d="M572 542l90.6468-24.6005 4.7541-49.4605 4.7485-49.375H572V344.5h107.2692l7.1199-74.061H572v-74.064h121.5077 87.3325l-7.1197 74.064-7.1199 74.061-7.1198 74.064-4.7456 49.375-2.4138 25.1282-7.3119 76.0455-89.6737 24.3323L572 616.064V542z"/><path d="M572.0001 418.564h-72.8557l-7.1199-74.064h79.9756z" fill="#ebebeb"/></svg>